<?xml version="1.0" encoding="UTF-8" standalone="no"?>
<svg
   xmlns:dc="http://purl.org/dc/elements/1.1/"
   xmlns:cc="http://creativecommons.org/ns#"
   xmlns:rdf="http://www.w3.org/1999/02/22-rdf-syntax-ns#"
   xmlns:svg="http://www.w3.org/2000/svg"
   xmlns="http://www.w3.org/2000/svg"
   xmlns:sodipodi="http://sodipodi.sourceforge.net/DTD/sodipodi-0.dtd"
   xmlns:inkscape="http://www.inkscape.org/namespaces/inkscape"
   inkscape:version="1.0 (4035a4fb49, 2020-05-01)"
   sodipodi:docname="devices_image.svg"
   viewBox="0 0 864.58731 502.96964"
   height="502.96967"
   width="864.58734"
   xml:space="preserve"
   id="svg833"
   version="1.1"><metadata
     id="metadata839"><rdf:RDF><cc:Work
         rdf:about=""><dc:format>image/svg+xml</dc:format><dc:type
           rdf:resource="http://purl.org/dc/dcmitype/StillImage" /><dc:title></dc:title></cc:Work></rdf:RDF></metadata><defs
     id="defs837"><clipPath
   clipPathUnits="userSpaceOnUse"
   id="clipPath849"><path
     d="M 0,566 H 800 V 0 H 0 Z"
     id="path847" /></clipPath><clipPath
   clipPathUnits="userSpaceOnUse"
   id="clipPath861"><path
     d="m 273.031,224.312 143.65,-144.44 c 81.485,6.602 149.414,61.131 175.577,135.367 v 0 l -66.414,65.964 z"
     id="path859" /></clipPath><linearGradient
   x1="0"
   y1="0"
   x2="1"
   y2="0"
   gradientUnits="userSpaceOnUse"
   gradientTransform="matrix(202.63268,-202.63268,-202.63268,-202.63268,393.51221,258.5127)"
   spreadMethod="pad"
   id="linearGradient873"><stop
     style="stop-opacity:1;stop-color:#36767d"
     offset="0"
     id="stop867" /><stop
     style="stop-opacity:1;stop-color:#4aa1af"
     offset="0.42861429"
     id="stop869" /><stop
     style="stop-opacity:1;stop-color:#4aa1af"
     offset="1"
     id="stop871" /></linearGradient><clipPath
   clipPathUnits="userSpaceOnUse"
   id="clipPath883"><path
     d="M 0,566 H 800 V 0 H 0 Z"
     id="path881" /></clipPath><style
   id="style3693">.cls-1{fill:#e94c26;}</style><filter
   style="color-interpolation-filters:sRGB"
   inkscape:label="Drop Shadow"
   id="filter3906"><feFlood
     flood-opacity="0.407843"
     flood-color="rgb(0,0,0)"
     result="flood"
     id="feFlood3896" /><feComposite
     in="flood"
     in2="SourceGraphic"
     operator="in"
     result="composite1"
     id="feComposite3898" /><feGaussianBlur
     in="composite1"
     stdDeviation="10.1796"
     result="blur"
     id="feGaussianBlur3900" /><feOffset
     dx="15.2695"
     dy="-12.2754"
     result="offset"
     id="feOffset3902" /><feComposite
     in="SourceGraphic"
     in2="offset"
     operator="over"
     result="composite2"
     id="feComposite3904" /></filter>
	
	
	
	
	
	
	
	
	
	
	
	
	
	
	
	
	
	
	
	
	
	
	

		
		
		
	</defs><sodipodi:namedview
     lock-margins="false"
     pagecolor="#ffffff"
     bordercolor="#666666"
     borderopacity="1"
     objecttolerance="10"
     gridtolerance="10"
     guidetolerance="10"
     inkscape:pageopacity="0"
     inkscape:pageshadow="2"
     inkscape:window-width="1920"
     inkscape:window-height="1017"
     id="namedview835"
     showgrid="false"
     inkscape:zoom="1.5497631"
     inkscape:cx="437.84369"
     inkscape:cy="219.24638"
     inkscape:window-x="-8"
     inkscape:window-y="-8"
     inkscape:window-maximized="1"
     inkscape:current-layer="g2766"
     inkscape:document-rotation="0"
     fit-margin-top="25"
     fit-margin-left="2.5"
     fit-margin-right="2.5"
     fit-margin-bottom="25" /><g
     style="display:inline"
     id="g841"
     inkscape:groupmode="layer"
     inkscape:label="flat-cloud-vector-icon"
     transform="matrix(1.33333,0,0,-1.33333,-102.33023,718.27687)" /><g
     style="display:inline"
     inkscape:groupmode="layer"
     id="layer1"
     inkscape:label="l2"
     transform="translate(-102.33023,-36.390134)"><g
       transform="matrix(2.6741718,0,0,2.6741718,-895.05225,-892.39753)"
       id="g2766"><path
         style="fill:#dadfe1;stroke-width:0.48288"
         d="M 436.03698,372.68291 H 612.644 c 3.94899,0 7.12827,3.17928 7.12827,7.12827 v 112.40525 c 0,3.94899 -3.17928,7.12827 -7.12827,7.12827 H 436.03698 c -3.94899,0 -7.12827,-3.17928 -7.12827,-7.12827 V 379.81118 c 0,-3.94947 3.17928,-7.12827 7.12827,-7.12827 z"
         id="path2891" /><path
         style="fill:#006eba;stroke-width:0.48288;fill-opacity:1"
         d="m 436.72219,380.08304 h 175.2366 V 491.9436 h -175.2366 z"
         id="path2893" /><path
         style="fill:#bcbdbf;stroke-width:0.48288"
         d="m 410.58535,499.34422 c 0,5.92349 5.31361,10.69241 11.91409,10.69241 H 626.1825 c 6.60049,0 11.9141,-4.76892 11.9141,-10.69241 z"
         id="path2895" /><path
         style="fill:#7c7e7f;stroke-width:0.48288"
         d="m 509.21549,499.34422 c 0,2.13916 1.61426,3.86111 2.51049,3.86111 h 26.26528 c 0.89623,0 2.11357,-1.72195 2.11357,-3.86111 z"
         id="path2897" /><g
         style="fill:#007cd2;fill-opacity:0.5"
         transform="matrix(0.48287983,0,0,0.48287983,410.58535,56.392275)"
         id="g2903">
		<path
   style="fill:#007cd2;fill-opacity:0.5"
   d="M 234.316,670.334 360.82,901.988 h 56.207 V 670.334 Z"
   id="path2899" />
		<path
   style="fill:#007cd2;fill-opacity:0.5"
   d="m 147.648,670.334 126.506,231.654 h 63.9 L 211.55,670.334 Z"
   id="path2901" />
	</g><path
         style="fill:#ececec;stroke-width:0.48288"
         d="m 565.61199,397.94718 h 69.3879 c 2.28112,0 4.11751,1.82287 4.11751,4.0871 v 103.91477 c 0,2.26422 -1.83639,4.0871 -4.11751,4.0871 h -69.3879 c -2.28113,0 -4.11752,-1.82288 -4.11752,-4.0871 V 402.03428 c 0,-2.26423 1.83639,-4.0871 4.11752,-4.0871 z"
         id="path2905" /><path
         style="fill:#006eba;stroke-width:0.48288;fill-opacity:1"
         d="m 565.386,406.5492 h 69.83988 v 94.18765 H 565.386 Z"
         id="path2907" /><g
         transform="matrix(0.48287983,0,0,0.48287983,410.58535,56.392275)"
         id="g2913">
		
			<path
   shape-rendering="auto"
   image-rendering="auto"
   color-rendering="auto"
   color-interpolation="sRGB"
   style="fill:#b3b5b5"
   d="m 392.894,923.626 c -3.303,0 -5.998,2.695 -5.998,5.998 0,3.303 2.695,5.998 5.998,5.998 3.303,0 5.998,-2.695 5.998,-5.998 0,-3.303 -2.695,-5.998 -5.998,-5.998 z m 0,1.711 c 2.378,0 4.287,1.909 4.287,4.287 0,2.378 -1.909,4.287 -4.287,4.287 -2.378,0 -4.287,-1.909 -4.287,-4.287 0,-2.378 1.909,-4.287 4.287,-4.287 z"
   id="path2909" />
		<path
   style="fill:#b3b5b5"
   d="m 394.326,717.036 c 0,0.791 -0.641,1.431 -1.431,1.431 v 0 c -0.791,0 -1.431,-0.641 -1.431,-1.431 v 0 c 0,-0.791 0.641,-1.431 1.431,-1.431 v 0 c 0.79,0 1.431,0.641 1.431,1.431 z"
   id="path2911" />
	</g><g
         style="fill:#007cd2;fill-opacity:0.5"
         transform="matrix(0.48287983,0,0,0.48287983,410.58535,56.392275)"
         id="g2919">
		<path
   style="fill:#007cd2;fill-opacity:0.5"
   d="m 385.324,725.143 79.887,146.291 V 725.143 Z"
   id="path2915" />
		<path
   style="fill:#007cd2;fill-opacity:0.5"
   d="m 320.578,725.143 v 9.729 l 101.203,185.326 h 43.43 v -2.813 L 360.228,725.143 Z"
   id="path2917" />
	</g><g
         style="fill:#888888;fill-opacity:1"
         transform="matrix(0.48287983,0,0,0.48287983,410.58535,56.392275)"
         id="g2933">
		<path
   style="fill:#888888;fill-opacity:1"
   d="m 435.296,812.704 v 10.281 c 0,0.548 -0.441,0.989 -0.989,0.989 -0.548,0 -0.989,-0.441 -0.989,-0.989 v -10.281 c 0,-0.548 0.441,-0.989 0.989,-0.989 0.547,0 0.989,0.441 0.989,0.989 z"
   id="path2927" />
		<path
   style="fill:#888888;fill-opacity:1"
   d="m 435.296,826.749 v 10.281 c 0,0.548 -0.441,0.989 -0.989,0.989 -0.548,0 -0.989,-0.441 -0.989,-0.989 v -10.281 c 0,-0.548 0.441,-0.989 0.989,-0.989 0.547,-10e-4 0.989,0.441 0.989,0.989 z"
   id="path2929" />
		<path
   style="fill:#888888;fill-opacity:1"
   d="m 435.433,797.962 v 6.44 c 0,0.548 -0.441,0.989 -0.989,0.989 -0.548,0 -0.989,-0.441 -0.989,-0.989 v -6.44 c 0,-0.548 0.441,-0.989 0.989,-0.989 0.548,-10e-4 0.989,0.44 0.989,0.989 z"
   id="path2931" />
	</g><path
         id="path2935"
         d="m 625.38623,431.81686 c -2.84561,0 -5.14653,2.30237 -5.14653,5.1475 v 67.92574 c 0,2.84561 2.30092,5.14653 5.14653,5.14653 h 28.12969 c 2.84561,0 5.14653,-2.30141 5.14653,-5.14653 v -67.92574 c 0,-2.84562 -2.30092,-5.1475 -5.14653,-5.1475 z"
         style="color-interpolation:sRGB;fill:#b3b5b5;stroke:none;stroke-width:0.48288;stroke-opacity:1;color-rendering:auto;image-rendering:auto;shape-rendering:auto;fill-opacity:1" /><path
         id="path2937"
         d="m 625.38623,432.50351 h 28.12969 c 2.47765,0 4.46084,1.98367 4.46084,4.46085 v 67.92574 c 0,2.47717 -1.98367,4.45987 -4.46084,4.45987 h -28.12969 c -2.47765,0 -4.46084,-1.98318 -4.46084,-4.45987 v -67.92574 c 0,-2.47718 1.98367,-4.46085 4.46084,-4.46085 z"
         style="color-interpolation:sRGB;fill:#f0f0f0;stroke:none;stroke-width:0.48288;stroke-opacity:1;color-rendering:auto;image-rendering:auto;shape-rendering:auto" /><path
         id="path2939"
         d="m 639.27579,501.6408 c -1.62055,0 -2.93977,1.31922 -2.93977,2.93977 0,1.62054 1.31922,2.93881 2.93977,2.93881 1.62054,0 2.93881,-1.31827 2.93881,-2.93881 0,-1.62055 -1.31827,-2.93977 -2.93881,-2.93977 z m 0,0.5273 c 1.33516,0 2.4115,1.07731 2.4115,2.41247 0,1.33516 -1.07634,2.4115 -2.4115,2.4115 -1.33516,0 -2.41247,-1.07634 -2.41247,-2.4115 0,-1.33516 1.07731,-2.41247 2.41247,-2.41247 z"
         style="color-interpolation:sRGB;fill:#b3b5b5;stroke:none;stroke-width:0.48288;stroke-opacity:1;color-rendering:auto;image-rendering:auto;shape-rendering:auto;fill-opacity:1" /><path
         style="fill:#006eba;stroke-width:0.48288;fill-opacity:1"
         d="m 622.80814,440.85009 h 32.93433 v 59.30537 h -32.93433 z"
         id="path2943" /><g
         style="fill:#b3b5b5;fill-opacity:1"
         transform="matrix(0.48287983,0,0,0.48287983,410.58535,56.392275)"
         id="g2951">
		<path
   style="fill:#b3b5b5;fill-opacity:1"
   d="m 468.471,787.459 h 10.979 c 0.355,0 0.64,0.286 0.64,0.64 0,0.354 -0.286,0.64 -0.64,0.64 h -10.979 c -0.355,0 -0.64,-0.286 -0.64,-0.64 0,-0.354 0.285,-0.64 0.64,-0.64 z"
   id="path2945" />
		<path
   style="fill:#b3b5b5;fill-opacity:1"
   d="m 462.869,788.099 c 0,0.643 -0.521,1.164 -1.164,1.164 -0.643,0 -1.164,-0.521 -1.164,-1.164 0,-0.643 0.521,-1.164 1.164,-1.164 0.643,0 1.164,0.521 1.164,1.164 z"
   id="path2947" />
		<path
   style="fill:#b3b5b5;fill-opacity:1"
   d="m 474.717,782.658 c 0,0.418 -0.339,0.757 -0.757,0.757 -0.418,0 -0.757,-0.339 -0.757,-0.757 0,-0.418 0.339,-0.757 0.757,-0.757 0.418,0 0.757,0.339 0.757,0.757 z"
   id="path2949" />
	</g><path
         style="fill:#a0a0a0;stroke-width:0.48288;fill-opacity:1"
         d="m 633.92645,436.94939 c 0,0.21729 -0.17626,0.39354 -0.39355,0.39354 -0.2173,0 -0.39355,-0.17625 -0.39355,-0.39354 0,-0.2173 0.17625,-0.39355 0.39355,-0.39355 v 0 c 0.21778,4.8e-4 0.39355,0.17625 0.39355,0.39355 z"
         id="path2953" /><g
         style="fill:#007cd2;fill-opacity:0.5"
         transform="matrix(0.48287983,0,0,0.48287983,410.58535,56.392275)"
         id="g2961">
		<path
   style="fill:#007cd2;fill-opacity:0.5"
   d="m 466.853,796.178 40.846,74.797 v -74.797 z"
   id="path2957" />
		<path
   style="fill:#007cd2;fill-opacity:0.5"
   d="m 439.494,796.178 v 33.813 l 48.605,89.004 h 19.6 v -17.963 l -57.26,-104.854 z"
   id="path2959" />
	</g><g
         transform="matrix(0.48287983,0,0,0.48287983,410.58535,317.32122)"
         id="g2977">
</g><g
         transform="matrix(0.48287983,0,0,0.48287983,410.58535,317.32122)"
         id="g2979">
</g><g
         transform="matrix(0.48287983,0,0,0.48287983,410.58535,317.32122)"
         id="g2981">
</g><g
         transform="matrix(0.48287983,0,0,0.48287983,410.58535,317.32122)"
         id="g2983">
</g><g
         transform="matrix(0.48287983,0,0,0.48287983,410.58535,317.32122)"
         id="g2985">
</g><g
         transform="matrix(0.48287983,0,0,0.48287983,410.58535,317.32122)"
         id="g2987">
</g><g
         transform="matrix(0.48287983,0,0,0.48287983,410.58535,317.32122)"
         id="g2989">
</g><g
         transform="matrix(0.48287983,0,0,0.48287983,410.58535,317.32122)"
         id="g2991">
</g><g
         transform="matrix(0.48287983,0,0,0.48287983,410.58535,317.32122)"
         id="g2993">
</g><g
         transform="matrix(0.48287983,0,0,0.48287983,410.58535,317.32122)"
         id="g2995">
</g><g
         transform="matrix(0.48287983,0,0,0.48287983,410.58535,317.32122)"
         id="g2997">
</g><g
         transform="matrix(0.48287983,0,0,0.48287983,410.58535,317.32122)"
         id="g2999">
</g><g
         transform="matrix(0.48287983,0,0,0.48287983,410.58535,317.32122)"
         id="g3001">
</g><g
         transform="matrix(0.48287983,0,0,0.48287983,410.58535,317.32122)"
         id="g3003">
</g><g
         transform="matrix(0.48287983,0,0,0.48287983,410.58535,317.32122)"
         id="g3005">
</g></g></g></svg>
