<?xml version="1.0" encoding="UTF-8" standalone="no"?>
<svg
   xmlns:dc="http://purl.org/dc/elements/1.1/"
   xmlns:cc="http://creativecommons.org/ns#"
   xmlns:rdf="http://www.w3.org/1999/02/22-rdf-syntax-ns#"
   xmlns:svg="http://www.w3.org/2000/svg"
   xmlns="http://www.w3.org/2000/svg"
   xmlns:sodipodi="http://sodipodi.sourceforge.net/DTD/sodipodi-0.dtd"
   xmlns:inkscape="http://www.inkscape.org/namespaces/inkscape"
   inkscape:export-ydpi="2000"
   inkscape:export-xdpi="2000"
   inkscape:export-filename="C:\Users\higgi\Google Drive\Websites\EL Site Services Logo and Stuff\Final Logo V2\ELS2_notext_nobox.png"
   width="101.36993mm"
   height="44.546803mm"
   viewBox="0 0 101.36994 44.546803"
   version="1.1"
   id="svg8"
   inkscape:version="1.0 (4035a4fb49, 2020-05-01)"
   sodipodi:docname="ELS2_notext_nobox.svg">
  <defs
     id="defs2" />
  <sodipodi:namedview
     id="base"
     pagecolor="#ffffff"
     bordercolor="#666666"
     borderopacity="1.0"
     inkscape:pageopacity="0.0"
     inkscape:pageshadow="2"
     inkscape:zoom="1.979899"
     inkscape:cx="185.32565"
     inkscape:cy="101.43243"
     inkscape:document-units="mm"
     inkscape:current-layer="layer1"
     showgrid="false"
     inkscape:window-width="1920"
     inkscape:window-height="1017"
     inkscape:window-x="-8"
     inkscape:window-y="-8"
     inkscape:window-maximized="1"
     fit-margin-top="0"
     fit-margin-left="0"
     fit-margin-right="0"
     fit-margin-bottom="0"
     inkscape:document-rotation="0" />
  <metadata
     id="metadata5">
    <rdf:RDF>
      <cc:Work
         rdf:about="">
        <dc:format>image/svg+xml</dc:format>
        <dc:type
           rdf:resource="http://purl.org/dc/dcmitype/StillImage" />
        <dc:title></dc:title>
      </cc:Work>
    </rdf:RDF>
  </metadata>
  <g
     inkscape:label="Layer 1"
     inkscape:groupmode="layer"
     id="layer1"
     transform="translate(-41.276854,-70.716606)">
    <ellipse
       ry="10.289877"
       rx="10.557146"
       cy="101.31897"
       cx="59.985722"
       id="path837"
       style="fill:#000000;stroke:#000000;stroke-width:0.264999;stroke-linecap:round;stroke-linejoin:round;fill-opacity:0.97991967" />
    <path
       d="m 56.865381,70.717038 c -0.02735,-0.0046 -0.03433,0.0285 -0.05221,0.06121 -0.0238,0.04762 -0.309756,0.869373 -0.619309,1.821837 -1.893025,5.738606 -3.226813,8.059629 -7.98914,13.869669 -3.393157,4.143226 -4.749956,6.072563 -5.761951,8.179896 -0.773879,1.643 -1.083405,2.892773 -1.15484,4.678644 -0.261927,6.667276 4.143228,12.965246 10.560463,15.108296 1.726344,0.57148 3.095936,0.7978 5.000867,0.7978 4.297999,-0.0124 7.988781,-1.54791 11.012859,-4.58391 2.750244,-2.76214 4.262387,-6.13106 4.536222,-10.02428 0.178592,-2.726423 -0.678777,-5.834051 -2.928979,-10.477323 -2.547846,-5.286182 -6.77429,-12.00075 -10.941327,-17.370274 -1.312615,-1.696581 -1.58062,-2.047615 -1.662658,-2.061569 z m 2.220745,22.708828 h 2.277455 c 0.411497,1.157706 0.528121,1.897815 1.422282,2.268435 h 6.45e-4 c 0.897688,0.372041 1.512015,-0.07458 2.611922,-0.597399 l 1.610459,1.610461 c -0.526332,1.108375 -0.968729,1.716972 -0.597396,2.612566 v 6.44e-4 c 0.369925,0.892747 1.105749,1.008687 2.269078,1.422277 v 2.27746 c -1.150647,0.40937 -1.899031,0.52866 -2.270368,1.42422 -0.371334,0.89702 0.0738,1.50929 0.598041,2.61063 l -1.610459,1.6111 c -1.111892,-0.5284 -1.716247,-0.96858 -2.605476,-0.59933 h -6.45e-4 c -0.899799,0.37481 -1.017996,1.11697 -1.428083,2.26972 h -2.277455 c -0.410792,-1.15557 -0.528062,-1.89716 -1.422927,-2.26778 h -6.45e-4 c -0.896983,-0.37204 -1.511307,0.0732 -2.611921,0.59674 l -1.609815,-1.6111 c 0.516494,-1.0858 0.969556,-1.70795 0.596109,-2.61127 -0.371335,-0.89487 -1.117852,-1.01425 -2.267789,-1.42293 v -2.27746 c 1.152052,-0.41008 1.896454,-0.52737 2.267789,-1.422921 0.372039,-0.896999 -0.07117,-1.507715 -0.596109,-2.612566 l 1.609815,-1.610461 c 1.109774,0.527848 1.716353,0.96944 2.611921,0.597399 h 6.45e-4 c 0.894865,-0.371331 1.01284,-1.116345 1.422927,-2.268435 z m 1.138728,5.637573 c -1.556505,0 -2.818787,1.261661 -2.818787,2.818141 0,1.55653 1.262282,2.81879 2.818787,2.81879 1.556507,0 2.818142,-1.26226 2.818142,-2.81879 0,-1.55648 -1.261635,-2.818141 -2.818142,-2.818141 z"
       style="fill:#f5d54c;fill-opacity:1;stroke-width:0.329953"
       id="rect834" />
    <g
       aria-label="EL"
       style="font-style:normal;font-weight:normal;font-size:66.83652496px;line-height:1.25;font-family:sans-serif;letter-spacing:0px;word-spacing:0px;fill:#000000;fill-opacity:1;stroke:none;stroke-width:1.67091298"
       id="text828">
      <path
         d="M 109.64117,79.201713 H 88.395774 v 9.137806 H 105.1049 V 96.72672 H 88.395774 v 9.72524 h 21.245396 v 8.81145 H 77.789391 V 70.716608 h 31.851779 z"
         style="font-style:normal;font-variant:normal;font-weight:normal;font-stretch:normal;font-family:'Franklin Gothic Demi';-inkscape-font-specification:'Franklin Gothic Demi';stroke-width:1.67091298;fill:#000000;fill-opacity:1"
         id="path844"
         inkscape:connector-curvature="0" />
      <path
         d="m 124.92597,106.45196 h 17.72082 v 8.81145 H 114.35222 V 70.716608 h 10.57375 z"
         style="font-style:normal;font-variant:normal;font-weight:normal;font-stretch:normal;font-family:'Franklin Gothic Demi';-inkscape-font-specification:'Franklin Gothic Demi';stroke-width:1.67091298;fill:#000000;fill-opacity:1"
         id="path846"
         inkscape:connector-curvature="0" />
    </g>
  </g>
</svg>
