<svg xmlns="http://www.w3.org/2000/svg" viewBox="0 0 176.29 87.25"><defs><style>.cls-1{fill:#1d71b8;}.cls-2{fill:#9d9d9c;}.cls-3{fill:#575756;}</style></defs><g id="Layer_2" data-name="Layer 2"><g id="Layer_1-2" data-name="Layer 1"><path class="cls-1" d="M45,1.13q-3.16,0-4.39,2.25L24.3,24.05a2,2,0,0,1-3.59-1.24V4.05A2.92,2.92,0,0,0,19.92,2a2.64,2.64,0,0,0-2-.84H2.81A2.66,2.66,0,0,0,.78,2,3,3,0,0,0,0,4.05V77.11a2.69,2.69,0,0,0,.84,2,2.67,2.67,0,0,0,2,.85H17.9a2.61,2.61,0,0,0,2-.85,2.76,2.76,0,0,0,.79-2v-21a2,2,0,0,1,3.6-1.23L42.1,77.68a4.72,4.72,0,0,0,1.58,1.52,5.22,5.22,0,0,0,2.92.73h0a8.93,8.93,0,0,0,.18-2.32V68.67a11.87,11.87,0,0,1,4.48-9.36h0a2,2,0,0,0,.2-2.65L38.86,40.07a2,2,0,0,1,0-2.45l8.79-11.38a2,2,0,0,0,.41-1.11A30.57,30.57,0,0,1,57.42,4.61a2,2,0,0,0-1.37-3.48Z"/><path class="cls-2" d="M112.39,77.45a31,31,0,0,1-9.69-14.86H84.77l9.34-9.34h0q3.66-2.73,6.64-5.32c0-1.84,0-4.11,0-6.84,0-4.49,0-7.75.11-10,.34-9.08,2.93-16.6,7.7-22.47A24.42,24.42,0,0,0,100.41,3,40.18,40.18,0,0,0,84.09,0,35,35,0,0,0,68,3.55a27.26,27.26,0,0,0-10.86,9.57A25.77,25.77,0,0,0,53,26.57a2.23,2.23,0,0,0,.73,1.63,2.38,2.38,0,0,0,1.75.73H70.36q3.15,0,3.82-2.58a13.69,13.69,0,0,1,3.16-6.59,8.58,8.58,0,0,1,6.75-2.65q8.32,0,8.33,8.33,0,3.27-2.87,6.93a55.46,55.46,0,0,1-8.33,8.16Q75.76,45,65.06,53.14h0L54.6,63.38A6.93,6.93,0,0,0,51.78,69v8.44a2.91,2.91,0,0,0,2.82,2.82h58.65l.52,0a2.59,2.59,0,0,0,1.38-.69A33.3,33.3,0,0,1,112.39,77.45Z"/><path class="cls-3" d="M156,86.52a8.19,8.19,0,0,1-1.74-1.86l-3-3.87a2,2,0,0,0-2.06-.73,32.08,32.08,0,0,1-8.35,1q-16,0-25.22-7.77t-9.79-22.86c-.08-2.1-.11-5.32-.11-9.68s0-7.61.11-9.79q.56-14.87,9.9-22.91t25.11-8q15.75,0,25.1,8.05T175.84,31c.15,4.35.23,7.62.23,9.79s-.08,5.48-.23,9.68q-.63,12.78-7.19,20.39a2,2,0,0,0-.1,2.43L176,83.76a2.57,2.57,0,0,1,.34,1.12v.34a1.87,1.87,0,0,1-.67,1.41,2.3,2.3,0,0,1-1.58.62H158.5A4.11,4.11,0,0,1,156,86.52Zm-5.8-25.9q3.5-3.54,3.72-10.86c.15-4.35.22-7.47.22-9.34s-.07-4.92-.22-9.12q-.22-7.32-3.72-10.87a14.1,14.1,0,0,0-18.69,0Q128,24,127.77,31.3c-.08,2.1-.11,5.14-.11,9.12s0,7.16.11,9.34q.23,7.32,3.71,10.86a14.07,14.07,0,0,0,18.69,0Z"/></g></g></svg>