<?xml version="1.0" encoding="UTF-8" standalone="no"?>
<svg
   xmlns:dc="http://purl.org/dc/elements/1.1/"
   xmlns:cc="http://creativecommons.org/ns#"
   xmlns:rdf="http://www.w3.org/1999/02/22-rdf-syntax-ns#"
   xmlns:svg="http://www.w3.org/2000/svg"
   xmlns="http://www.w3.org/2000/svg"
   xmlns:sodipodi="http://sodipodi.sourceforge.net/DTD/sodipodi-0.dtd"
   xmlns:inkscape="http://www.inkscape.org/namespaces/inkscape"
   inkscape:version="1.0.2 (e86c870879, 2021-01-15, custom)"
   sodipodi:docname="k2qlogosmallwhitebackground.svg"
   id="svg14"
   version="1.1"
   viewBox="0 0 116.11705 59.960243"
   width="116.11705"
   height="59.960243">
  <metadata
     id="metadata18">
    <rdf:RDF>
      <cc:Work
         rdf:about="">
        <dc:format>image/svg+xml</dc:format>
        <dc:type
           rdf:resource="http://purl.org/dc/dcmitype/StillImage" />
        <dc:title></dc:title>
      </cc:Work>
    </rdf:RDF>
  </metadata>
  <sodipodi:namedview
     inkscape:current-layer="svg14"
     inkscape:window-maximized="1"
     inkscape:window-y="-8"
     inkscape:window-x="-8"
     inkscape:cy="29.980121"
     inkscape:cx="58.058524"
     inkscape:zoom="5.9504228"
     showgrid="false"
     id="namedview16"
     inkscape:window-height="1017"
     inkscape:window-width="1920"
     inkscape:pageshadow="2"
     inkscape:pageopacity="0"
     guidetolerance="10"
     gridtolerance="10"
     objecttolerance="10"
     borderopacity="1"
     bordercolor="#666666"
     pagecolor="#ffffff"
     inkscape:document-rotation="0"
     fit-margin-top="0"
     fit-margin-left="0"
     fit-margin-right="0"
     fit-margin-bottom="0" />
  <defs
     id="defs4">
    <style
       id="style2">.cls-1{fill:#1d71b8;}.cls-2{fill:#9d9d9c;}.cls-3{fill:#575756;}</style>
  </defs>
  <rect
     style="fill:#ffffff;fill-opacity:1;stroke:#ffffff;stroke-width:4.11031;stroke-linecap:round;stroke-linejoin:round;stroke-miterlimit:4;stroke-dasharray:none;stroke-opacity:1"
     id="rect835"
     width="112.00674"
     height="55.849934"
     x="2.055155"
     y="2.055155" />
  <g
     data-name="Layer 2"
     id="Layer_2"
     transform="matrix(0.58018336,0,0,0.58018336,6.9038748,4.6727459)">
    <g
       data-name="Layer 1"
       id="Layer_1-2">
      <path
         id="path6"
         d="m 45,1.13 q -3.16,0 -4.39,2.25 L 24.3,24.05 A 2,2 0 0 1 20.71,22.81 V 4.05 A 2.92,2.92 0 0 0 19.92,2 2.64,2.64 0 0 0 17.92,1.16 H 2.81 A 2.66,2.66 0 0 0 0.78,2 3,3 0 0 0 0,4.05 v 73.06 a 2.69,2.69 0 0 0 0.84,2 2.67,2.67 0 0 0 2,0.85 H 17.9 a 2.61,2.61 0 0 0 2,-0.85 2.76,2.76 0 0 0 0.79,-2 v -21 a 2,2 0 0 1 3.6,-1.23 l 17.81,22.8 a 4.72,4.72 0 0 0 1.58,1.52 5.22,5.22 0 0 0 2.92,0.73 v 0 a 8.93,8.93 0 0 0 0.18,-2.32 v -8.94 a 11.87,11.87 0 0 1 4.48,-9.36 v 0 a 2,2 0 0 0 0.2,-2.65 L 38.86,40.07 a 2,2 0 0 1 0,-2.45 L 47.65,26.24 A 2,2 0 0 0 48.06,25.13 30.57,30.57 0 0 1 57.42,4.61 2,2 0 0 0 56.05,1.13 Z"
         class="cls-1" />
      <path
         id="path8"
         d="M 112.39,77.45 A 31,31 0 0 1 102.7,62.59 H 84.77 l 9.34,-9.34 v 0 q 3.66,-2.73 6.64,-5.32 c 0,-1.84 0,-4.11 0,-6.84 0,-4.49 0,-7.75 0.11,-10 0.34,-9.08 2.93,-16.6 7.7,-22.47 A 24.42,24.42 0 0 0 100.41,3 40.18,40.18 0 0 0 84.09,0 35,35 0 0 0 68,3.55 27.26,27.26 0 0 0 57.14,13.12 25.77,25.77 0 0 0 53,26.57 a 2.23,2.23 0 0 0 0.73,1.63 2.38,2.38 0 0 0 1.75,0.73 h 14.88 q 3.15,0 3.82,-2.58 a 13.69,13.69 0 0 1 3.16,-6.59 8.58,8.58 0 0 1 6.75,-2.65 q 8.32,0 8.33,8.33 0,3.27 -2.87,6.93 a 55.46,55.46 0 0 1 -8.33,8.16 Q 75.76,45 65.06,53.14 v 0 L 54.6,63.38 A 6.93,6.93 0 0 0 51.78,69 v 8.44 a 2.91,2.91 0 0 0 2.82,2.82 h 58.65 0.52 a 2.59,2.59 0 0 0 1.38,-0.69 33.3,33.3 0 0 1 -2.76,-2.12 z"
         class="cls-2" />
      <path
         id="path10"
         d="m 156,86.52 a 8.19,8.19 0 0 1 -1.74,-1.86 l -3,-3.87 a 2,2 0 0 0 -2.06,-0.73 32.08,32.08 0 0 1 -8.35,1 q -16,0 -25.22,-7.77 -9.22,-7.77 -9.79,-22.86 c -0.08,-2.1 -0.11,-5.32 -0.11,-9.68 0,-4.36 0,-7.61 0.11,-9.79 q 0.56,-14.87 9.9,-22.91 9.34,-8.04 25.11,-8 15.75,0 25.1,8.05 9.35,8.05 9.89,22.9 c 0.15,4.35 0.23,7.62 0.23,9.79 0,2.17 -0.08,5.48 -0.23,9.68 q -0.63,12.78 -7.19,20.39 a 2,2 0 0 0 -0.1,2.43 L 176,83.76 a 2.57,2.57 0 0 1 0.34,1.12 v 0.34 a 1.87,1.87 0 0 1 -0.67,1.41 2.3,2.3 0 0 1 -1.58,0.62 H 158.5 A 4.11,4.11 0 0 1 156,86.52 Z m -5.8,-25.9 q 3.5,-3.54 3.72,-10.86 c 0.15,-4.35 0.22,-7.47 0.22,-9.34 0,-1.87 -0.07,-4.92 -0.22,-9.12 Q 153.7,23.98 150.2,20.43 a 14.1,14.1 0 0 0 -18.69,0 Q 128,24 127.77,31.3 c -0.08,2.1 -0.11,5.14 -0.11,9.12 0,3.98 0,7.16 0.11,9.34 q 0.23,7.32 3.71,10.86 a 14.07,14.07 0 0 0 18.69,0 z"
         class="cls-3" />
    </g>
  </g>
</svg>
