<?xml version="1.0" encoding="UTF-8" standalone="no"?>
<svg
   xmlns:dc="http://purl.org/dc/elements/1.1/"
   xmlns:cc="http://creativecommons.org/ns#"
   xmlns:rdf="http://www.w3.org/1999/02/22-rdf-syntax-ns#"
   xmlns:svg="http://www.w3.org/2000/svg"
   xmlns="http://www.w3.org/2000/svg"
   xmlns:sodipodi="http://sodipodi.sourceforge.net/DTD/sodipodi-0.dtd"
   xmlns:inkscape="http://www.inkscape.org/namespaces/inkscape"
   version="1.1"
   id="svg833"
   xml:space="preserve"
   width="1066.6667"
   height="754.66669"
   viewBox="0 0 1066.6667 754.66669"
   sodipodi:docname="training_circle.svg"
   inkscape:version="1.0 (4035a4fb49, 2020-05-01)"><metadata
     id="metadata839"><rdf:RDF><cc:Work
         rdf:about=""><dc:format>image/svg+xml</dc:format><dc:type
           rdf:resource="http://purl.org/dc/dcmitype/StillImage" /><dc:title></dc:title></cc:Work></rdf:RDF></metadata><defs
     id="defs837"><clipPath
       id="clipPath849"
       clipPathUnits="userSpaceOnUse"><path
         id="path847"
         d="M 0,566 H 800 V 0 H 0 Z" /></clipPath><clipPath
       id="clipPath861"
       clipPathUnits="userSpaceOnUse"><path
         id="path859"
         d="m 273.031,224.312 143.65,-144.44 c 81.485,6.602 149.414,61.131 175.577,135.367 v 0 l -66.414,65.964 z" /></clipPath><linearGradient
       id="linearGradient873"
       spreadMethod="pad"
       gradientTransform="matrix(202.63268,-202.63268,-202.63268,-202.63268,393.51221,258.5127)"
       gradientUnits="userSpaceOnUse"
       y2="0"
       x2="1"
       y1="0"
       x1="0"><stop
         id="stop867"
         offset="0"
         style="stop-opacity:1;stop-color:#36767d" /><stop
         id="stop869"
         offset="0.42861429"
         style="stop-opacity:1;stop-color:#4aa1af" /><stop
         id="stop871"
         offset="1"
         style="stop-opacity:1;stop-color:#4aa1af" /></linearGradient><clipPath
       id="clipPath883"
       clipPathUnits="userSpaceOnUse"><path
         id="path881"
         d="M 0,566 H 800 V 0 H 0 Z" /></clipPath><style
       id="style3693">.cls-1{fill:#e94c26;}</style><filter
       id="filter3906"
       inkscape:label="Drop Shadow"
       style="color-interpolation-filters:sRGB;"><feFlood
         id="feFlood3896"
         result="flood"
         flood-color="rgb(0,0,0)"
         flood-opacity="0.407843" /><feComposite
         id="feComposite3898"
         result="composite1"
         operator="in"
         in2="SourceGraphic"
         in="flood" /><feGaussianBlur
         id="feGaussianBlur3900"
         result="blur"
         stdDeviation="10.1796"
         in="composite1" /><feOffset
         id="feOffset3902"
         result="offset"
         dy="-12.2754"
         dx="15.2695" /><feComposite
         id="feComposite3904"
         result="composite2"
         operator="over"
         in2="offset"
         in="SourceGraphic" /></filter></defs><sodipodi:namedview
     inkscape:document-rotation="0"
     inkscape:current-layer="g841"
     inkscape:window-maximized="1"
     inkscape:window-y="-8"
     inkscape:window-x="-8"
     inkscape:cy="379.80171"
     inkscape:cx="335.49899"
     inkscape:zoom="0.77488157"
     showgrid="false"
     id="namedview835"
     inkscape:window-height="1017"
     inkscape:window-width="1920"
     inkscape:pageshadow="2"
     inkscape:pageopacity="0"
     guidetolerance="10"
     gridtolerance="10"
     objecttolerance="10"
     borderopacity="1"
     bordercolor="#666666"
     pagecolor="#ffffff" /><g
     transform="matrix(1.33333 0 0 -1.33333 0 754.667)"
     inkscape:label="flat-cloud-vector-icon"
     inkscape:groupmode="layer"
     id="g841"><g
       style="fill:#006eba;fill-opacity:1"
       id="g843"><g
         style="fill:#006eba;fill-opacity:1"
         clip-path="url(#clipPath849)"
         id="g845"><g
           style="fill:#006eba;fill-opacity:1"
           transform="translate(603.8105,283)"
           id="g851"><path
             id="path853"
             style="fill:#006eba;fill-opacity:1;fill-rule:nonzero;stroke:none"
             d="m 0,0 c 0,-112.563 -91.25,-203.811 -203.81,-203.811 -112.562,0 -203.811,91.248 -203.811,203.811 0,112.562 91.249,203.811 203.811,203.811 C -91.25,203.811 0,112.562 0,0" /></g></g></g><path
       transform="matrix(0.88218109,0,0,0.88218109,47.128095,33.207927)"
       style="fill:#ffffff;fill-opacity:1;stroke-width:3.66133;filter:url(#filter3906)"
       class="cls-1"
       d="m 266.5813,314.21936 130.59949,55.76193 a 3.6613252,3.6613252 0 0 0 2.92905,0 l 133.27224,-55.72532 a 5.2723081,5.2723081 0 0 0 2.92906,-5.08929 5.125855,5.125855 0 0 0 -3.14874,-4.90616 l -45.25401,-15.67047 c -9.7757,17.31807 -52.39352,25.22656 -88.97017,25.22656 a 5.1990818,5.1990818 0 0 1 0,-10.21512 c 45.18074,0 77.87639,-10.984 82.26997,-21.2723 v -33.3913 c 0,0 0,-0.25629 0,-0.40273 0,-12.99768 -37.05263,-23.57893 -82.78255,-23.57893 -45.72994,0 -82.70933,10.61786 -82.70933,23.61554 0,0.18307 0,0.2929 0,0.43936 v 38.29745 l -23.46913,8.16479 v -43.49658 a 14.6453,14.6453 0 0 0 8.2014,-13.47365 14.86498,14.86498 0 0 0 -6.70026,-12.63158 l 2.70942,-16.76888 c 1.46454,-7.54231 -22.44396,-17.79404 -21.52859,-10.69104 l 4.35697,28.55831 a 15.011433,15.011433 0 0 0 -5.27234,11.60642 14.6453,14.6453 0 0 0 8.2014,13.40042 v 46.93822 l -15.37757,5.34551 a 5.0892419,5.0892419 0 0 0 -3.14874,4.86955 5.2723081,5.2723081 0 0 0 2.89245,5.08929"
       id="path3699" /></g></svg>
